<?xml version="1.0" encoding="UTF-8" standalone="no"?>
<!-- Created with Inkscape (http://www.inkscape.org/) -->

<svg
 width="100"
 height="100"
 viewBox="0 0 100 100"
 version="1.1"
 id="svg5"
 inkscape:version="1.2.1 (9c6d41e, 2022-07-14)"
 sodipodi:docname="logo.svg"
 xmlns:inkscape="http://www.inkscape.org/namespaces/inkscape"
 xmlns:sodipodi="http://sodipodi.sourceforge.net/DTD/sodipodi-0.dtd"
 xmlns="http://www.w3.org/2000/svg"
 xmlns:svg="http://www.w3.org/2000/svg">
<sodipodi:namedview
 id="namedview7"
 pagecolor="#ffffff"
 bordercolor="#999999"
 borderopacity="1"
 inkscape:showpageshadow="0"
 inkscape:pageopacity="0"
 inkscape:pagecheckerboard="0"
 inkscape:deskcolor="#d1d1d1"
 inkscape:document-units="px"
 showgrid="true"
 inkscape:zoom="5.657"
 inkscape:cx="-7.159"
 inkscape:cy="33.85"
 inkscape:window-width="1846"
 inkscape:window-height="1016"
 inkscape:window-x="74"
 inkscape:window-y="27"
 inkscape:window-maximized="1"
 inkscape:current-layer="layer1">
<inkscape:grid
 type="xygrid"
 id="grid182"
 dotted="true"
 spacingx="1"
 spacingy="1" />
</sodipodi:namedview>
<defs
 id="defs2">
<inkscape:path-effect
 effect="bspline"
 id="path-effect1242"
 is_visible="true"
 lpeversion="1"
 weight="33.33"
 steps="2"
 helper_size="0"
 apply_no_weight="true"
 apply_with_weight="true"
 only_selected="false" />
<inkscape:path-effect
 effect="bspline"
 id="path-effect1157"
 is_visible="true"
 lpeversion="1"
 weight="33.33"
 steps="2"
 helper_size="0"
 apply_no_weight="true"
 apply_with_weight="true"
 only_selected="false" />
<inkscape:path-effect
 effect="bspline"
 id="path-effect1153"
 is_visible="true"
 lpeversion="1"
 weight="33.33"
 steps="2"
 helper_size="0"
 apply_no_weight="true"
 apply_with_weight="true"
 only_selected="false" />
<inkscape:path-effect
 effect="bspline"
 id="path-effect1075"
 is_visible="true"
 lpeversion="1"
 weight="33.33"
 steps="2"
 helper_size="0"
 apply_no_weight="true"
 apply_with_weight="true"
 only_selected="false" />
<linearGradient
 id="linearGradient1013"
 inkscape:swatch="solid">
<stop
 style="stop-color:#000000;stop-opacity:1;"
 offset="0"
 id="stop1011" />
</linearGradient>
<inkscape:path-effect
 effect="bspline"
 id="path-effect1009"
 is_visible="true"
 lpeversion="1"
 weight="33.33"
 steps="2"
 helper_size="0"
 apply_no_weight="true"
 apply_with_weight="true"
 only_selected="false" />
<inkscape:path-effect
 effect="bspline"
 id="path-effect240"
 is_visible="true"
 lpeversion="1"
 weight="33.33"
 steps="2"
 helper_size="0"
 apply_no_weight="true"
 apply_with_weight="true"
 only_selected="false" />
<inkscape:path-effect
 effect="bspline"
 id="path-effect1157-3"
 is_visible="true"
 lpeversion="1"
 weight="33.33"
 steps="2"
 helper_size="0"
 apply_no_weight="true"
 apply_with_weight="true"
 only_selected="false" />
</defs>
<g
 inkscape:label="Livello 1"
 inkscape:groupmode="layer"
 id="layer1">
<circle
 style="fill:#ffffff;fill-opacity:1;stroke:none;stroke-width:5;stroke-linecap:round;stroke-linejoin:round;stroke-dasharray:none"
 id="path3704"
 cx="50"
 cy="50"
 r="50" />
<path
 id="path3613"
 style="fill:#0090f1;fill-opacity:1;stroke:none;stroke-width:5;stroke-linecap:round;stroke-linejoin:round;stroke-dasharray:none"
 d="M 50 0 A 50 50 0 0 0 0 50 A 50 50 0 0 0 16.7 87.15 C 16.68 68.16 16.04 22.61 16.7 19.24 C 17.03 16.57 20.03 15.84 20.03 15.84 C 21.42 15.74 22.81 15.54 24.06 15.64 C 24.82 15.64 25.52 15.71 26.15 15.84 C 27.83 16.31 28.9 17.44 29.5 17.97 C 41.64 29.79 56.25 45.14 69.8 61.22 C 69.8 43.88 69.74 7.846 70.29 4.312 A 50 50 0 0 0 50 0 z M 82.69 12.17 C 83.08 23.38 83 76.93 83 80 C 83 82 79.75 82 79.75 82 L 73.07 82 C 73.07 82 71 82 69.37 81 C 64.74 78.12 29.9 36.26 29.9 36.26 C 30.03 54.04 30.03 95.39 30.03 95.78 A 50 50 0 0 0 50 100 A 50 50 0 0 0 100 50 A 50 50 0 0 0 82.69 12.17 z " />
</g>
</svg>
