<?xml version="1.0" encoding="UTF-8" standalone="no"?>
<!-- Created with Inkscape (http://www.inkscape.org/) -->

<svg
 version="1.1"
 width="282"
 height="75"
 id="Monero-Logo"
 sodipodi:docname="Nevocoin-Logo.svg"
 inkscape:version="1.2.1 (9c6d41e, 2022-07-14)"
 xmlns:inkscape="http://www.inkscape.org/namespaces/inkscape"
 xmlns:sodipodi="http://sodipodi.sourceforge.net/DTD/sodipodi-0.dtd"
 xmlns="http://www.w3.org/2000/svg"
 xmlns:svg="http://www.w3.org/2000/svg"
 xmlns:rdf="http://www.w3.org/1999/02/22-rdf-syntax-ns#"
 xmlns:cc="http://creativecommons.org/ns#"
 xmlns:dc="http://purl.org/dc/elements/1.1/">
<sodipodi:namedview
 id="namedview13"
 pagecolor="#ffffff"
 bordercolor="#999999"
 borderopacity="1"
 inkscape:showpageshadow="0"
 inkscape:pageopacity="0"
 inkscape:pagecheckerboard="0"
 inkscape:deskcolor="#d1d1d1"
 showgrid="false"
 inkscape:zoom="5.351"
 inkscape:cx="156.7"
 inkscape:cy="17.29"
 inkscape:window-width="1846"
 inkscape:window-height="1016"
 inkscape:window-x="74"
 inkscape:window-y="27"
 inkscape:window-maximized="1"
 inkscape:current-layer="Monero-Logo" />
<metadata
 id="metadata8">
<rdf:RDF>
<cc:Work
 rdf:about="">
<dc:format>image/svg+xml</dc:format>
<dc:type
 rdf:resource="http://purl.org/dc/dcmitype/StillImage" />
</cc:Work>
</rdf:RDF>
</metadata>
<defs
 id="defs6">
<rect
 x="75"
 y="3.852"
 width="102.7"
 height="19.95"
 id="rect3980" />
<rect
 x="75"
 y="2.985"
 width="156.2"
 height="30.37"
 id="rect3974" />
<rect
 x="75"
 y="75"
 width="207"
 height="75"
 id="rect3968" />
</defs>
<circle
 style="fill:#ffffff;fill-opacity:1;stroke:none;stroke-width:5;stroke-linecap:round;stroke-linejoin:round;stroke-dasharray:none"
 cx="37.5"
 cy="37.5"
 r="37.5"
 id="circle2665" />
<path
 style="fill:#0090f1;fill-opacity:1;stroke:none;stroke-width:5;stroke-linecap:round;stroke-linejoin:round;stroke-dasharray:none"
 d="M 37.5,0 A 37.5,37.5 0 0 0 0,37.5 37.5,37.5 0 0 0 12.52,65.36 c 0,-14.24 -0.49,-48.4 0,-50.93 0.25,-2 2.5,-2.55 2.5,-2.55 1.05,-0.1 2.09,-0.22 3.03,-0.15 0.57,0 1.09,0.1 1.56,0.15 1.26,0.35 2.06,1.2 2.52,1.6 9.1,8.86 20.06,20.38 30.22,32.44 0,-13.01 -0.1,-40.032 0.37,-42.687 A 37.5,37.5 0 0 0 37.5,0 Z M 62.02,9.128 C 62.31,17.53 62.25,57.7 62.25,60 c 0,1.5 -2.44,1.5 -2.44,1.5 H 54.8 c 0,0 -1.55,0 -2.77,-0.75 -3.48,-2.16 -29.61,-33.56 -29.61,-33.56 0.1,13.34 0.1,44.35 0.1,44.65 A 37.5,37.5 0 0 0 37.5,75 37.5,37.5 0 0 0 75,37.5 37.5,37.5 0 0 0 62.02,9.128 Z"
 id="path2667" />
<text
 xml:space="preserve"
 id="text3966"
 style="fill:none;font-size:14px;-inkscape-font-specification:'sans-serif Bold';font-family:sans-serif;font-weight:bold;stroke-linejoin:round;stroke-linecap:round;stroke:#000000;text-align:center;white-space:pre;shape-inside:url(#rect3968)" />
<text
 xml:space="preserve"
 id="text3972"
 style="fill:none;font-size:14px;-inkscape-font-specification:'sans-serif Bold';font-family:sans-serif;font-weight:bold;stroke-linejoin:round;stroke-linecap:round;stroke:#000000;text-align:center;white-space:pre;shape-inside:url(#rect3974)" />
<text
 xml:space="preserve"
 id="text3978"
 style="fill:none;font-size:14px;-inkscape-font-specification:'sans-serif Bold';font-family:sans-serif;font-weight:bold;stroke-linejoin:round;stroke-linecap:round;stroke:#000000;text-align:center;white-space:pre;shape-inside:url(#rect3980)" />
<g
 aria-label="NEVOCOIN"
 transform="translate(106.3,13.64)"
 id="text3986"
 style="font-weight:bold;font-size:38px;font-family:MoneroGothic;-inkscape-font-specification:'MoneroGothic Bold';text-align:center;text-anchor:middle;white-space:pre;inline-size:315.906;stroke-linecap:round;stroke-linejoin:round">
<path
 d="M -25.09,10.22 V 37.5 h 5.17 V 19.6 l 11.7,17.9 h 4.978 V 10.22 H -8.448 V 28.15 L -20.15,10.22 Z"
 id="path6492" />
<path
 d="M 1.584,10.22 1.622,37.5 H 18.38 V 32.41 H 6.79 V 26.1 H 18.38 V 20.82 H 6.79 v -5.51 h 11.59 v -5.09 z"
 id="path6494" />
<path
 d="m 20.62,10.22 9.69,27.28 h 5.02 l 9.8,-27.28 H 39.81 L 32.86,29.6 25.98,10.22 Z"
 id="path6496" />
<path
 d="m 62.19,9.532 c -2.58,0 -4.94,0.648 -7.14,1.938 -2.2,1.29 -3.95,3 -5.21,5.21 -1.25,2.2 -1.86,4.59 -1.86,7.18 0,3.87 1.33,7.26 4.03,10.07 2.7,2.85 6.12,4.25 10.22,4.25 3.92,0 7.26,-1.36 10,-4.14 2.73,-2.73 4.1,-6.12 4.1,-10.11 0,-4.02 -1.41,-7.41 -4.18,-10.22 -2.81,-2.77 -6.12,-4.178 -9.96,-4.178 z m -0,5.058 c 2.5,0 4.59,0.91 6.34,2.69 1.75,1.83 2.62,4.03 2.62,6.62 0,2.62 -0.87,4.82 -2.62,6.61 -1.75,1.78 -3.84,2.66 -6.27,2.66 -2.2,0 -4.1,-0.69 -5.77,-2.05 -2.17,-1.75 -3.23,-4.15 -3.23,-7.19 0,-2.69 0.83,-4.94 2.54,-6.68 1.71,-1.75 3.84,-2.66 6.39,-2.66 z"
 id="path6498" />
<path
 d="m 106.3,15 c -1.5,-1.74 -3.4,-3.07 -5.4,-4.02 -2.11,-0.95 -4.28,-1.448 -6.52,-1.448 -2.66,0 -5.13,0.648 -7.41,1.938 -2.28,1.29 -4.07,2.96 -5.28,5.09 -1.26,2.13 -1.86,4.56 -1.86,7.26 0,4.22 1.33,7.68 4.06,10.34 2.7,2.69 6.16,4.02 10.41,4.02 2.28,0 4.34,-0.38 6.1,-1.14 1.8,-0.76 3.7,-2.12 5.8,-4.1 l -3.6,-3.65 c -1.5,1.48 -2.86,2.51 -4.08,3.08 -1.25,0.57 -2.62,0.84 -4.14,0.84 -1.79,0 -3.38,-0.38 -4.83,-1.22 -1.44,-0.8 -2.58,-1.9 -3.34,-3.31 -0.8,-1.4 -1.18,-3.04 -1.18,-4.86 0,-2.58 0.88,-4.79 2.66,-6.57 1.79,-1.79 3.99,-2.7 6.61,-2.7 3.04,0 5.8,1.37 8.3,3.95 z"
 id="path6500" />
<path
 d="m 123.7,9.532 c -2.6,0 -5,0.648 -7.2,1.938 -2.2,1.29 -3.9,3 -5.2,5.21 -1.2,2.2 -1.8,4.59 -1.8,7.18 0,3.87 1.3,7.26 4,10.07 2.7,2.85 6.1,4.25 10.2,4.25 3.9,0 7.3,-1.36 10,-4.14 2.7,-2.73 4.1,-6.12 4.1,-10.11 0,-4.02 -1.4,-7.41 -4.2,-10.22 -2.8,-2.77 -6.1,-4.178 -9.9,-4.178 z m -0.1,5.058 c 2.5,0 4.6,0.91 6.4,2.69 1.7,1.83 2.6,4.03 2.6,6.62 0,2.62 -0.9,4.82 -2.6,6.61 -1.8,1.78 -3.9,2.66 -6.3,2.66 -2.2,0 -4.1,-0.69 -5.8,-2.05 -2.1,-1.75 -3.2,-4.15 -3.2,-7.19 0,-2.69 0.8,-4.94 2.6,-6.68 1.7,-1.75 3.8,-2.66 6.3,-2.66 z"
 id="path6502" />
<path
 d="M 142.3,10.22 V 37.5 h 5.2 V 10.22 Z"
 id="path6504" />
<path
 d="M 153.3,10.22 V 37.5 h 5.2 V 19.6 l 11.7,17.9 h 5 V 10.22 H 170 V 28.15 L 158.3,10.22 Z"
 id="path6506" />
</g>
</svg>
